<!DOCTYPE svg PUBLIC "-//W3C//DTD SVG 1.1//EN" "http://www.w3.org/Graphics/SVG/1.1/DTD/svg11.dtd">
<!-- Uploaded to: SVG Repo, www.svgrepo.com, Transformed by: SVG Repo Mixer Tools -->
<svg width="800px" height="800px" viewBox="0 0 24 24" xmlns="http://www.w3.org/2000/svg" fill="#000000">
<g id="SVGRepo_bgCarrier" stroke-width="0"/>
<g id="SVGRepo_tracerCarrier" stroke-linecap="round" stroke-linejoin="round"/>
<g id="SVGRepo_iconCarrier">
<path d="M7 5H4a1 1 0 0 1-1-1V2a1 1 0 0 1 1-1h3a1 1 0 0 1 1 1v2a1 1 0 0 1-1 1zm.001-1L7 4.5zM4 2v2h3V2zm10 3h-3a1 1 0 0 1-1-1V2a1 1 0 0 1 1-1h3a1 1 0 0 1 1 1v2a1 1 0 0 1-1 1zm.001-1L14 4.5zM11 2v2h3V2zm10 3h-3a1 1 0 0 1-1-1V2a1 1 0 0 1 1-1h3a1 1 0 0 1 1 1v2a1 1 0 0 1-1 1zm.001-1L21 4.5zM18 2v2h3V2zM7 11H4a1 1 0 0 1-1-1V8a1 1 0 0 1 1-1h3a1 1 0 0 1 1 1v2a1 1 0 0 1-1 1zm.001-1L7 10.5zM4 8v2h3V8zm10 3h-3a1 1 0 0 1-1-1V8a1 1 0 0 1 1-1h3a1 1 0 0 1 1 1v2a1 1 0 0 1-1 1zm.001-1l-.001.5zM11 8v2h3V8zm10 3h-3a1 1 0 0 1-1-1V8a1 1 0 0 1 1-1h3a1 1 0 0 1 1 1v2a1 1 0 0 1-1 1zm.001-1l-.001.5zM18 8v2h3V8zM7 17H4a1 1 0 0 1-1-1v-2a1 1 0 0 1 1-1h3a1 1 0 0 1 1 1v2a1 1 0 0 1-1 1zm.001-1L7 16.5zM4 14v2h3v-2zm10 3h-3a1 1 0 0 1-1-1v-2a1 1 0 0 1 1-1h3a1 1 0 0 1 1 1v2a1 1 0 0 1-1 1zm.001-1l-.001.5zM11 14v2h3v-2zm10 3h-3a1 1 0 0 1-1-1v-2a1 1 0 0 1 1-1h3a1 1 0 0 1 1 1v2a1 1 0 0 1-1 1zm.001-1l-.001.5zM18 14v2h3v-2zm-4 9h-3a1 1 0 0 1-1-1v-2a1 1 0 0 1 1-1h3a1 1 0 0 1 1 1v2a1 1 0 0 1-1 1zm.001-1l-.001.5zM11 20v2h3v-2z"/>
<path fill="none" d="M0 0h24v24H0z"/>
</g>
</svg>