<!DOCTYPE svg PUBLIC "-//W3C//DTD SVG 1.1//EN" "http://www.w3.org/Graphics/SVG/1.1/DTD/svg11.dtd">
<!-- Uploaded to: SVG Repo, www.svgrepo.com, Transformed by: SVG Repo Mixer Tools -->
<svg width="64px" height="64px" viewBox="0 0 16 16" xmlns="http://www.w3.org/2000/svg" fill="#1ba357">
<g id="SVGRepo_bgCarrier" stroke-width="0"/>
<g id="SVGRepo_tracerCarrier" stroke-linecap="round" stroke-linejoin="round"/>
<g id="SVGRepo_iconCarrier"> <path d="m 3 1 c -1.644531 0 -3 1.355469 -3 3 v 4 c 0 1.644531 1.355469 3 3 3 h 1 v 1 c 0 1.644531 1.355469 3 3 3 h 6 c 1.644531 0 3 -1.355469 3 -3 v -4 c 0 -1.644531 -1.355469 -3 -3 -3 h -1 v -1 c 0 -1.644531 -1.355469 -3 -3 -3 z m 0 2 h 6 c 0.570312 0 1 0.429688 1 1 v 4 c 0 0.570312 -0.429688 1 -1 1 h -1 c -0.550781 0 -1 0.449219 -1 1 s 0.449219 1 1 1 h 1 c 1.644531 0 3 -1.355469 3 -3 v -1 h 1 c 0.570312 0 1 0.429688 1 1 v 4 c 0 0.570312 -0.429688 1 -1 1 h -6 c -0.570312 0 -1 -0.429688 -1 -1 v -4 c 0 -0.570312 0.429688 -1 1 -1 h 1 c 0.550781 0 1 -0.449219 1 -1 s -0.449219 -1 -1 -1 h -1 c -1.644531 0 -3 1.355469 -3 3 v 1 h -1 c -0.570312 0 -1 -0.429688 -1 -1 v -4 c 0 -0.570312 0.429688 -1 1 -1 z m 0 0" fill="#1ba357"/> </g>
</svg>